<mxfile host="Electron" modified="2024-09-29T03:24:01.311Z" agent="Mozilla/5.0 (Windows NT 10.0; Win64; x64) AppleWebKit/537.36 (KHTML, like Gecko) draw.io/22.0.3 Chrome/114.0.5735.289 Electron/25.8.4 Safari/537.36" etag="17rxGek80qIjAYJEqfxi" version="22.0.3" type="device">
  <diagram name="PÃ¡gina-1" id="k5B1OsZbSeSzW7hUXhII">
    <mxGraphModel dx="3663" dy="1347" grid="1" gridSize="10" guides="1" tooltips="1" connect="1" arrows="1" fold="1" page="1" pageScale="1" pageWidth="827" pageHeight="1169" math="0" shadow="0">
      <root>
        <mxCell id="0" />
        <mxCell id="1" parent="0" />
        <mxCell id="Sg_wVtw9s0vus6_2Qnjn-1" value="MobiliarioModerno" style="swimlane;fontStyle=1;align=center;verticalAlign=top;childLayout=stackLayout;horizontal=1;startSize=26;horizontalStack=0;resizeParent=1;resizeParentMax=0;resizeLast=0;collapsible=1;marginBottom=0;whiteSpace=wrap;html=1;" parent="1" vertex="1">
          <mxGeometry x="-130" y="328.5" width="180" height="120" as="geometry" />
        </mxCell>
        <mxCell id="Sg_wVtw9s0vus6_2Qnjn-2" value="&amp;nbsp;" style="text;strokeColor=none;fillColor=none;align=left;verticalAlign=top;spacingLeft=4;spacingRight=4;overflow=hidden;rotatable=0;points=[[0,0.5],[1,0.5]];portConstraint=eastwest;whiteSpace=wrap;html=1;" parent="Sg_wVtw9s0vus6_2Qnjn-1" vertex="1">
          <mxGeometry y="26" width="180" height="26" as="geometry" />
        </mxCell>
        <mxCell id="Sg_wVtw9s0vus6_2Qnjn-3" value="" style="line;strokeWidth=1;fillColor=none;align=left;verticalAlign=middle;spacingTop=-1;spacingLeft=3;spacingRight=3;rotatable=0;labelPosition=right;points=[];portConstraint=eastwest;strokeColor=inherit;" parent="Sg_wVtw9s0vus6_2Qnjn-1" vertex="1">
          <mxGeometry y="52" width="180" height="8" as="geometry" />
        </mxCell>
        <mxCell id="Sg_wVtw9s0vus6_2Qnjn-4" value="+ crearSilla() : SillaModerna&lt;br&gt;+ crearMesa() : MesaModerna&lt;br&gt;+ crearSofa() : SofaModerno" style="text;strokeColor=none;fillColor=none;align=left;verticalAlign=top;spacingLeft=4;spacingRight=4;overflow=hidden;rotatable=0;points=[[0,0.5],[1,0.5]];portConstraint=eastwest;whiteSpace=wrap;html=1;" parent="Sg_wVtw9s0vus6_2Qnjn-1" vertex="1">
          <mxGeometry y="60" width="180" height="60" as="geometry" />
        </mxCell>
        <mxCell id="Sg_wVtw9s0vus6_2Qnjn-5" value="&amp;lt;&amp;lt;abstract&amp;gt;&amp;gt;&lt;br&gt;Mobiliario" style="swimlane;fontStyle=1;align=center;verticalAlign=top;childLayout=stackLayout;horizontal=1;startSize=40;horizontalStack=0;resizeParent=1;resizeParentMax=0;resizeLast=0;collapsible=1;marginBottom=0;whiteSpace=wrap;html=1;" parent="1" vertex="1">
          <mxGeometry x="80" y="110" width="160" height="154" as="geometry" />
        </mxCell>
        <mxCell id="Sg_wVtw9s0vus6_2Qnjn-6" value="&amp;nbsp;" style="text;strokeColor=none;fillColor=none;align=left;verticalAlign=top;spacingLeft=4;spacingRight=4;overflow=hidden;rotatable=0;points=[[0,0.5],[1,0.5]];portConstraint=eastwest;whiteSpace=wrap;html=1;" parent="Sg_wVtw9s0vus6_2Qnjn-5" vertex="1">
          <mxGeometry y="40" width="160" height="26" as="geometry" />
        </mxCell>
        <mxCell id="Sg_wVtw9s0vus6_2Qnjn-7" value="" style="line;strokeWidth=1;fillColor=none;align=left;verticalAlign=middle;spacingTop=-1;spacingLeft=3;spacingRight=3;rotatable=0;labelPosition=right;points=[];portConstraint=eastwest;strokeColor=inherit;" parent="Sg_wVtw9s0vus6_2Qnjn-5" vertex="1">
          <mxGeometry y="66" width="160" height="8" as="geometry" />
        </mxCell>
        <mxCell id="Sg_wVtw9s0vus6_2Qnjn-8" value="+ crearSilla() : Silla&lt;br&gt;+ crearMesa() : Mesa&lt;br&gt;+ crearSofa() : Sofa" style="text;strokeColor=none;fillColor=none;align=left;verticalAlign=top;spacingLeft=4;spacingRight=4;overflow=hidden;rotatable=0;points=[[0,0.5],[1,0.5]];portConstraint=eastwest;whiteSpace=wrap;html=1;" parent="Sg_wVtw9s0vus6_2Qnjn-5" vertex="1">
          <mxGeometry y="74" width="160" height="80" as="geometry" />
        </mxCell>
        <mxCell id="Sg_wVtw9s0vus6_2Qnjn-17" value="Cliente" style="swimlane;fontStyle=1;align=center;verticalAlign=top;childLayout=stackLayout;horizontal=1;startSize=26;horizontalStack=0;resizeParent=1;resizeParentMax=0;resizeLast=0;collapsible=1;marginBottom=0;whiteSpace=wrap;html=1;" parent="1" vertex="1">
          <mxGeometry x="430" y="20" width="160" height="120" as="geometry" />
        </mxCell>
        <mxCell id="Sg_wVtw9s0vus6_2Qnjn-18" value="- nombre: String" style="text;strokeColor=none;fillColor=none;align=left;verticalAlign=top;spacingLeft=4;spacingRight=4;overflow=hidden;rotatable=0;points=[[0,0.5],[1,0.5]];portConstraint=eastwest;whiteSpace=wrap;html=1;" parent="Sg_wVtw9s0vus6_2Qnjn-17" vertex="1">
          <mxGeometry y="26" width="160" height="26" as="geometry" />
        </mxCell>
        <mxCell id="Sg_wVtw9s0vus6_2Qnjn-19" value="" style="line;strokeWidth=1;fillColor=none;align=left;verticalAlign=middle;spacingTop=-1;spacingLeft=3;spacingRight=3;rotatable=0;labelPosition=right;points=[];portConstraint=eastwest;strokeColor=inherit;" parent="Sg_wVtw9s0vus6_2Qnjn-17" vertex="1">
          <mxGeometry y="52" width="160" height="8" as="geometry" />
        </mxCell>
        <mxCell id="Sg_wVtw9s0vus6_2Qnjn-20" value="+ comprarSilla() : Silla&lt;br&gt;+ comprarMesa() : Mesa&lt;br&gt;+ comprarSofa() : Sofa" style="text;strokeColor=none;fillColor=none;align=left;verticalAlign=top;spacingLeft=4;spacingRight=4;overflow=hidden;rotatable=0;points=[[0,0.5],[1,0.5]];portConstraint=eastwest;whiteSpace=wrap;html=1;" parent="Sg_wVtw9s0vus6_2Qnjn-17" vertex="1">
          <mxGeometry y="60" width="160" height="60" as="geometry" />
        </mxCell>
        <mxCell id="Sg_wVtw9s0vus6_2Qnjn-21" value="MobiliarioVictoriano" style="swimlane;fontStyle=1;align=center;verticalAlign=top;childLayout=stackLayout;horizontal=1;startSize=26;horizontalStack=0;resizeParent=1;resizeParentMax=0;resizeLast=0;collapsible=1;marginBottom=0;whiteSpace=wrap;html=1;" parent="1" vertex="1">
          <mxGeometry x="70" y="328.5" width="180" height="120" as="geometry" />
        </mxCell>
        <mxCell id="Sg_wVtw9s0vus6_2Qnjn-22" value="&amp;nbsp;" style="text;strokeColor=none;fillColor=none;align=left;verticalAlign=top;spacingLeft=4;spacingRight=4;overflow=hidden;rotatable=0;points=[[0,0.5],[1,0.5]];portConstraint=eastwest;whiteSpace=wrap;html=1;" parent="Sg_wVtw9s0vus6_2Qnjn-21" vertex="1">
          <mxGeometry y="26" width="180" height="26" as="geometry" />
        </mxCell>
        <mxCell id="Sg_wVtw9s0vus6_2Qnjn-23" value="" style="line;strokeWidth=1;fillColor=none;align=left;verticalAlign=middle;spacingTop=-1;spacingLeft=3;spacingRight=3;rotatable=0;labelPosition=right;points=[];portConstraint=eastwest;strokeColor=inherit;" parent="Sg_wVtw9s0vus6_2Qnjn-21" vertex="1">
          <mxGeometry y="52" width="180" height="8" as="geometry" />
        </mxCell>
        <mxCell id="Sg_wVtw9s0vus6_2Qnjn-24" value="+ crearSilla() : SillaVictoriana&lt;br&gt;+ crearMesa() : MesaVictoriana&lt;br&gt;+ crearSofa() : SofaVictoriano" style="text;strokeColor=none;fillColor=none;align=left;verticalAlign=top;spacingLeft=4;spacingRight=4;overflow=hidden;rotatable=0;points=[[0,0.5],[1,0.5]];portConstraint=eastwest;whiteSpace=wrap;html=1;" parent="Sg_wVtw9s0vus6_2Qnjn-21" vertex="1">
          <mxGeometry y="60" width="180" height="60" as="geometry" />
        </mxCell>
        <mxCell id="Sg_wVtw9s0vus6_2Qnjn-25" value="&amp;lt;&amp;lt;abstract&amp;gt;&amp;gt;&lt;br&gt;Silla" style="swimlane;fontStyle=1;align=center;verticalAlign=top;childLayout=stackLayout;horizontal=1;startSize=43;horizontalStack=0;resizeParent=1;resizeParentMax=0;resizeLast=0;collapsible=1;marginBottom=0;whiteSpace=wrap;html=1;" parent="1" vertex="1">
          <mxGeometry x="770" y="337" width="160" height="103" as="geometry" />
        </mxCell>
        <mxCell id="Sg_wVtw9s0vus6_2Qnjn-26" value="&amp;nbsp;" style="text;strokeColor=none;fillColor=none;align=left;verticalAlign=top;spacingLeft=4;spacingRight=4;overflow=hidden;rotatable=0;points=[[0,0.5],[1,0.5]];portConstraint=eastwest;whiteSpace=wrap;html=1;" parent="Sg_wVtw9s0vus6_2Qnjn-25" vertex="1">
          <mxGeometry y="43" width="160" height="26" as="geometry" />
        </mxCell>
        <mxCell id="Sg_wVtw9s0vus6_2Qnjn-27" value="" style="line;strokeWidth=1;fillColor=none;align=left;verticalAlign=middle;spacingTop=-1;spacingLeft=3;spacingRight=3;rotatable=0;labelPosition=right;points=[];portConstraint=eastwest;strokeColor=inherit;" parent="Sg_wVtw9s0vus6_2Qnjn-25" vertex="1">
          <mxGeometry y="69" width="160" height="8" as="geometry" />
        </mxCell>
        <mxCell id="Sg_wVtw9s0vus6_2Qnjn-28" value="&amp;nbsp;" style="text;strokeColor=none;fillColor=none;align=left;verticalAlign=top;spacingLeft=4;spacingRight=4;overflow=hidden;rotatable=0;points=[[0,0.5],[1,0.5]];portConstraint=eastwest;whiteSpace=wrap;html=1;" parent="Sg_wVtw9s0vus6_2Qnjn-25" vertex="1">
          <mxGeometry y="77" width="160" height="26" as="geometry" />
        </mxCell>
        <mxCell id="Sg_wVtw9s0vus6_2Qnjn-29" value="&amp;lt;&amp;lt;abstract&amp;gt;&amp;gt;&lt;br&gt;Sofa" style="swimlane;fontStyle=1;align=center;verticalAlign=top;childLayout=stackLayout;horizontal=1;startSize=43;horizontalStack=0;resizeParent=1;resizeParentMax=0;resizeLast=0;collapsible=1;marginBottom=0;whiteSpace=wrap;html=1;" parent="1" vertex="1">
          <mxGeometry x="1890" y="320" width="160" height="120" as="geometry" />
        </mxCell>
        <mxCell id="Sg_wVtw9s0vus6_2Qnjn-30" value="&amp;nbsp;" style="text;strokeColor=none;fillColor=none;align=left;verticalAlign=top;spacingLeft=4;spacingRight=4;overflow=hidden;rotatable=0;points=[[0,0.5],[1,0.5]];portConstraint=eastwest;whiteSpace=wrap;html=1;" parent="Sg_wVtw9s0vus6_2Qnjn-29" vertex="1">
          <mxGeometry y="43" width="160" height="26" as="geometry" />
        </mxCell>
        <mxCell id="Sg_wVtw9s0vus6_2Qnjn-31" value="" style="line;strokeWidth=1;fillColor=none;align=left;verticalAlign=middle;spacingTop=-1;spacingLeft=3;spacingRight=3;rotatable=0;labelPosition=right;points=[];portConstraint=eastwest;strokeColor=inherit;" parent="Sg_wVtw9s0vus6_2Qnjn-29" vertex="1">
          <mxGeometry y="69" width="160" height="8" as="geometry" />
        </mxCell>
        <mxCell id="Sg_wVtw9s0vus6_2Qnjn-32" value="&amp;nbsp;" style="text;strokeColor=none;fillColor=none;align=left;verticalAlign=top;spacingLeft=4;spacingRight=4;overflow=hidden;rotatable=0;points=[[0,0.5],[1,0.5]];portConstraint=eastwest;whiteSpace=wrap;html=1;" parent="Sg_wVtw9s0vus6_2Qnjn-29" vertex="1">
          <mxGeometry y="77" width="160" height="43" as="geometry" />
        </mxCell>
        <mxCell id="Sg_wVtw9s0vus6_2Qnjn-33" value="&amp;lt;&amp;lt;abstract&amp;gt;&amp;gt;&lt;br&gt;Mesa" style="swimlane;fontStyle=1;align=center;verticalAlign=top;childLayout=stackLayout;horizontal=1;startSize=43;horizontalStack=0;resizeParent=1;resizeParentMax=0;resizeLast=0;collapsible=1;marginBottom=0;whiteSpace=wrap;html=1;" parent="1" vertex="1">
          <mxGeometry x="1330" y="337" width="160" height="103" as="geometry" />
        </mxCell>
        <mxCell id="Sg_wVtw9s0vus6_2Qnjn-34" value="&amp;nbsp;" style="text;strokeColor=none;fillColor=none;align=left;verticalAlign=top;spacingLeft=4;spacingRight=4;overflow=hidden;rotatable=0;points=[[0,0.5],[1,0.5]];portConstraint=eastwest;whiteSpace=wrap;html=1;" parent="Sg_wVtw9s0vus6_2Qnjn-33" vertex="1">
          <mxGeometry y="43" width="160" height="26" as="geometry" />
        </mxCell>
        <mxCell id="Sg_wVtw9s0vus6_2Qnjn-35" value="" style="line;strokeWidth=1;fillColor=none;align=left;verticalAlign=middle;spacingTop=-1;spacingLeft=3;spacingRight=3;rotatable=0;labelPosition=right;points=[];portConstraint=eastwest;strokeColor=inherit;" parent="Sg_wVtw9s0vus6_2Qnjn-33" vertex="1">
          <mxGeometry y="69" width="160" height="8" as="geometry" />
        </mxCell>
        <mxCell id="Sg_wVtw9s0vus6_2Qnjn-36" value="&amp;nbsp;" style="text;strokeColor=none;fillColor=none;align=left;verticalAlign=top;spacingLeft=4;spacingRight=4;overflow=hidden;rotatable=0;points=[[0,0.5],[1,0.5]];portConstraint=eastwest;whiteSpace=wrap;html=1;" parent="Sg_wVtw9s0vus6_2Qnjn-33" vertex="1">
          <mxGeometry y="77" width="160" height="26" as="geometry" />
        </mxCell>
        <mxCell id="Sg_wVtw9s0vus6_2Qnjn-37" value="SillaModerna" style="swimlane;fontStyle=1;align=center;verticalAlign=top;childLayout=stackLayout;horizontal=1;startSize=26;horizontalStack=0;resizeParent=1;resizeParentMax=0;resizeLast=0;collapsible=1;marginBottom=0;whiteSpace=wrap;html=1;" parent="1" vertex="1">
          <mxGeometry x="590" y="499" width="160" height="86" as="geometry" />
        </mxCell>
        <mxCell id="Sg_wVtw9s0vus6_2Qnjn-38" value="&amp;nbsp;" style="text;strokeColor=none;fillColor=none;align=left;verticalAlign=top;spacingLeft=4;spacingRight=4;overflow=hidden;rotatable=0;points=[[0,0.5],[1,0.5]];portConstraint=eastwest;whiteSpace=wrap;html=1;" parent="Sg_wVtw9s0vus6_2Qnjn-37" vertex="1">
          <mxGeometry y="26" width="160" height="26" as="geometry" />
        </mxCell>
        <mxCell id="Sg_wVtw9s0vus6_2Qnjn-39" value="" style="line;strokeWidth=1;fillColor=none;align=left;verticalAlign=middle;spacingTop=-1;spacingLeft=3;spacingRight=3;rotatable=0;labelPosition=right;points=[];portConstraint=eastwest;strokeColor=inherit;" parent="Sg_wVtw9s0vus6_2Qnjn-37" vertex="1">
          <mxGeometry y="52" width="160" height="8" as="geometry" />
        </mxCell>
        <mxCell id="Sg_wVtw9s0vus6_2Qnjn-40" value="&amp;nbsp;" style="text;strokeColor=none;fillColor=none;align=left;verticalAlign=top;spacingLeft=4;spacingRight=4;overflow=hidden;rotatable=0;points=[[0,0.5],[1,0.5]];portConstraint=eastwest;whiteSpace=wrap;html=1;" parent="Sg_wVtw9s0vus6_2Qnjn-37" vertex="1">
          <mxGeometry y="60" width="160" height="26" as="geometry" />
        </mxCell>
        <mxCell id="Sg_wVtw9s0vus6_2Qnjn-41" value="SillaVictoriana" style="swimlane;fontStyle=1;align=center;verticalAlign=top;childLayout=stackLayout;horizontal=1;startSize=26;horizontalStack=0;resizeParent=1;resizeParentMax=0;resizeLast=0;collapsible=1;marginBottom=0;whiteSpace=wrap;html=1;" parent="1" vertex="1">
          <mxGeometry x="770" y="499" width="160" height="86" as="geometry" />
        </mxCell>
        <mxCell id="Sg_wVtw9s0vus6_2Qnjn-42" value="&amp;nbsp;" style="text;strokeColor=none;fillColor=none;align=left;verticalAlign=top;spacingLeft=4;spacingRight=4;overflow=hidden;rotatable=0;points=[[0,0.5],[1,0.5]];portConstraint=eastwest;whiteSpace=wrap;html=1;" parent="Sg_wVtw9s0vus6_2Qnjn-41" vertex="1">
          <mxGeometry y="26" width="160" height="26" as="geometry" />
        </mxCell>
        <mxCell id="Sg_wVtw9s0vus6_2Qnjn-43" value="" style="line;strokeWidth=1;fillColor=none;align=left;verticalAlign=middle;spacingTop=-1;spacingLeft=3;spacingRight=3;rotatable=0;labelPosition=right;points=[];portConstraint=eastwest;strokeColor=inherit;" parent="Sg_wVtw9s0vus6_2Qnjn-41" vertex="1">
          <mxGeometry y="52" width="160" height="8" as="geometry" />
        </mxCell>
        <mxCell id="Sg_wVtw9s0vus6_2Qnjn-44" value="&amp;nbsp;" style="text;strokeColor=none;fillColor=none;align=left;verticalAlign=top;spacingLeft=4;spacingRight=4;overflow=hidden;rotatable=0;points=[[0,0.5],[1,0.5]];portConstraint=eastwest;whiteSpace=wrap;html=1;" parent="Sg_wVtw9s0vus6_2Qnjn-41" vertex="1">
          <mxGeometry y="60" width="160" height="26" as="geometry" />
        </mxCell>
        <mxCell id="Sg_wVtw9s0vus6_2Qnjn-45" value="SillaArtDeco" style="swimlane;fontStyle=1;align=center;verticalAlign=top;childLayout=stackLayout;horizontal=1;startSize=26;horizontalStack=0;resizeParent=1;resizeParentMax=0;resizeLast=0;collapsible=1;marginBottom=0;whiteSpace=wrap;html=1;" parent="1" vertex="1">
          <mxGeometry x="950" y="499" width="160" height="86" as="geometry" />
        </mxCell>
        <mxCell id="Sg_wVtw9s0vus6_2Qnjn-46" value="&amp;nbsp;" style="text;strokeColor=none;fillColor=none;align=left;verticalAlign=top;spacingLeft=4;spacingRight=4;overflow=hidden;rotatable=0;points=[[0,0.5],[1,0.5]];portConstraint=eastwest;whiteSpace=wrap;html=1;" parent="Sg_wVtw9s0vus6_2Qnjn-45" vertex="1">
          <mxGeometry y="26" width="160" height="26" as="geometry" />
        </mxCell>
        <mxCell id="Sg_wVtw9s0vus6_2Qnjn-47" value="" style="line;strokeWidth=1;fillColor=none;align=left;verticalAlign=middle;spacingTop=-1;spacingLeft=3;spacingRight=3;rotatable=0;labelPosition=right;points=[];portConstraint=eastwest;strokeColor=inherit;" parent="Sg_wVtw9s0vus6_2Qnjn-45" vertex="1">
          <mxGeometry y="52" width="160" height="8" as="geometry" />
        </mxCell>
        <mxCell id="Sg_wVtw9s0vus6_2Qnjn-48" value="&amp;nbsp;" style="text;strokeColor=none;fillColor=none;align=left;verticalAlign=top;spacingLeft=4;spacingRight=4;overflow=hidden;rotatable=0;points=[[0,0.5],[1,0.5]];portConstraint=eastwest;whiteSpace=wrap;html=1;" parent="Sg_wVtw9s0vus6_2Qnjn-45" vertex="1">
          <mxGeometry y="60" width="160" height="26" as="geometry" />
        </mxCell>
        <mxCell id="Sg_wVtw9s0vus6_2Qnjn-49" value="MesaModerna" style="swimlane;fontStyle=1;align=center;verticalAlign=top;childLayout=stackLayout;horizontal=1;startSize=26;horizontalStack=0;resizeParent=1;resizeParentMax=0;resizeLast=0;collapsible=1;marginBottom=0;whiteSpace=wrap;html=1;" parent="1" vertex="1">
          <mxGeometry x="1150" y="499" width="160" height="86" as="geometry" />
        </mxCell>
        <mxCell id="Sg_wVtw9s0vus6_2Qnjn-50" value="&amp;nbsp;" style="text;strokeColor=none;fillColor=none;align=left;verticalAlign=top;spacingLeft=4;spacingRight=4;overflow=hidden;rotatable=0;points=[[0,0.5],[1,0.5]];portConstraint=eastwest;whiteSpace=wrap;html=1;" parent="Sg_wVtw9s0vus6_2Qnjn-49" vertex="1">
          <mxGeometry y="26" width="160" height="26" as="geometry" />
        </mxCell>
        <mxCell id="Sg_wVtw9s0vus6_2Qnjn-51" value="" style="line;strokeWidth=1;fillColor=none;align=left;verticalAlign=middle;spacingTop=-1;spacingLeft=3;spacingRight=3;rotatable=0;labelPosition=right;points=[];portConstraint=eastwest;strokeColor=inherit;" parent="Sg_wVtw9s0vus6_2Qnjn-49" vertex="1">
          <mxGeometry y="52" width="160" height="8" as="geometry" />
        </mxCell>
        <mxCell id="Sg_wVtw9s0vus6_2Qnjn-52" value="&amp;nbsp;" style="text;strokeColor=none;fillColor=none;align=left;verticalAlign=top;spacingLeft=4;spacingRight=4;overflow=hidden;rotatable=0;points=[[0,0.5],[1,0.5]];portConstraint=eastwest;whiteSpace=wrap;html=1;" parent="Sg_wVtw9s0vus6_2Qnjn-49" vertex="1">
          <mxGeometry y="60" width="160" height="26" as="geometry" />
        </mxCell>
        <mxCell id="Sg_wVtw9s0vus6_2Qnjn-53" value="MesaVictoriana" style="swimlane;fontStyle=1;align=center;verticalAlign=top;childLayout=stackLayout;horizontal=1;startSize=26;horizontalStack=0;resizeParent=1;resizeParentMax=0;resizeLast=0;collapsible=1;marginBottom=0;whiteSpace=wrap;html=1;" parent="1" vertex="1">
          <mxGeometry x="1330" y="499" width="160" height="86" as="geometry" />
        </mxCell>
        <mxCell id="Sg_wVtw9s0vus6_2Qnjn-54" value="&amp;nbsp;" style="text;strokeColor=none;fillColor=none;align=left;verticalAlign=top;spacingLeft=4;spacingRight=4;overflow=hidden;rotatable=0;points=[[0,0.5],[1,0.5]];portConstraint=eastwest;whiteSpace=wrap;html=1;" parent="Sg_wVtw9s0vus6_2Qnjn-53" vertex="1">
          <mxGeometry y="26" width="160" height="26" as="geometry" />
        </mxCell>
        <mxCell id="Sg_wVtw9s0vus6_2Qnjn-55" value="" style="line;strokeWidth=1;fillColor=none;align=left;verticalAlign=middle;spacingTop=-1;spacingLeft=3;spacingRight=3;rotatable=0;labelPosition=right;points=[];portConstraint=eastwest;strokeColor=inherit;" parent="Sg_wVtw9s0vus6_2Qnjn-53" vertex="1">
          <mxGeometry y="52" width="160" height="8" as="geometry" />
        </mxCell>
        <mxCell id="Sg_wVtw9s0vus6_2Qnjn-56" value="&amp;nbsp;" style="text;strokeColor=none;fillColor=none;align=left;verticalAlign=top;spacingLeft=4;spacingRight=4;overflow=hidden;rotatable=0;points=[[0,0.5],[1,0.5]];portConstraint=eastwest;whiteSpace=wrap;html=1;" parent="Sg_wVtw9s0vus6_2Qnjn-53" vertex="1">
          <mxGeometry y="60" width="160" height="26" as="geometry" />
        </mxCell>
        <mxCell id="Sg_wVtw9s0vus6_2Qnjn-57" value="MesaArtDeco" style="swimlane;fontStyle=1;align=center;verticalAlign=top;childLayout=stackLayout;horizontal=1;startSize=26;horizontalStack=0;resizeParent=1;resizeParentMax=0;resizeLast=0;collapsible=1;marginBottom=0;whiteSpace=wrap;html=1;" parent="1" vertex="1">
          <mxGeometry x="1510" y="499" width="160" height="86" as="geometry" />
        </mxCell>
        <mxCell id="Sg_wVtw9s0vus6_2Qnjn-58" value="&amp;nbsp;" style="text;strokeColor=none;fillColor=none;align=left;verticalAlign=top;spacingLeft=4;spacingRight=4;overflow=hidden;rotatable=0;points=[[0,0.5],[1,0.5]];portConstraint=eastwest;whiteSpace=wrap;html=1;" parent="Sg_wVtw9s0vus6_2Qnjn-57" vertex="1">
          <mxGeometry y="26" width="160" height="26" as="geometry" />
        </mxCell>
        <mxCell id="Sg_wVtw9s0vus6_2Qnjn-59" value="" style="line;strokeWidth=1;fillColor=none;align=left;verticalAlign=middle;spacingTop=-1;spacingLeft=3;spacingRight=3;rotatable=0;labelPosition=right;points=[];portConstraint=eastwest;strokeColor=inherit;" parent="Sg_wVtw9s0vus6_2Qnjn-57" vertex="1">
          <mxGeometry y="52" width="160" height="8" as="geometry" />
        </mxCell>
        <mxCell id="Sg_wVtw9s0vus6_2Qnjn-60" value="&amp;nbsp;" style="text;strokeColor=none;fillColor=none;align=left;verticalAlign=top;spacingLeft=4;spacingRight=4;overflow=hidden;rotatable=0;points=[[0,0.5],[1,0.5]];portConstraint=eastwest;whiteSpace=wrap;html=1;" parent="Sg_wVtw9s0vus6_2Qnjn-57" vertex="1">
          <mxGeometry y="60" width="160" height="26" as="geometry" />
        </mxCell>
        <mxCell id="Sg_wVtw9s0vus6_2Qnjn-61" value="SofaModerno" style="swimlane;fontStyle=1;align=center;verticalAlign=top;childLayout=stackLayout;horizontal=1;startSize=26;horizontalStack=0;resizeParent=1;resizeParentMax=0;resizeLast=0;collapsible=1;marginBottom=0;whiteSpace=wrap;html=1;" parent="1" vertex="1">
          <mxGeometry x="1710" y="499" width="160" height="110" as="geometry" />
        </mxCell>
        <mxCell id="Sg_wVtw9s0vus6_2Qnjn-62" value="&amp;nbsp;" style="text;strokeColor=none;fillColor=none;align=left;verticalAlign=top;spacingLeft=4;spacingRight=4;overflow=hidden;rotatable=0;points=[[0,0.5],[1,0.5]];portConstraint=eastwest;whiteSpace=wrap;html=1;" parent="Sg_wVtw9s0vus6_2Qnjn-61" vertex="1">
          <mxGeometry y="26" width="160" height="26" as="geometry" />
        </mxCell>
        <mxCell id="Sg_wVtw9s0vus6_2Qnjn-63" value="" style="line;strokeWidth=1;fillColor=none;align=left;verticalAlign=middle;spacingTop=-1;spacingLeft=3;spacingRight=3;rotatable=0;labelPosition=right;points=[];portConstraint=eastwest;strokeColor=inherit;" parent="Sg_wVtw9s0vus6_2Qnjn-61" vertex="1">
          <mxGeometry y="52" width="160" height="8" as="geometry" />
        </mxCell>
        <mxCell id="Sg_wVtw9s0vus6_2Qnjn-64" value="&amp;nbsp;" style="text;strokeColor=none;fillColor=none;align=left;verticalAlign=top;spacingLeft=4;spacingRight=4;overflow=hidden;rotatable=0;points=[[0,0.5],[1,0.5]];portConstraint=eastwest;whiteSpace=wrap;html=1;" parent="Sg_wVtw9s0vus6_2Qnjn-61" vertex="1">
          <mxGeometry y="60" width="160" height="50" as="geometry" />
        </mxCell>
        <mxCell id="Sg_wVtw9s0vus6_2Qnjn-65" value="SofaVictoriano" style="swimlane;fontStyle=1;align=center;verticalAlign=top;childLayout=stackLayout;horizontal=1;startSize=26;horizontalStack=0;resizeParent=1;resizeParentMax=0;resizeLast=0;collapsible=1;marginBottom=0;whiteSpace=wrap;html=1;" parent="1" vertex="1">
          <mxGeometry x="1890" y="499" width="160" height="110" as="geometry" />
        </mxCell>
        <mxCell id="Sg_wVtw9s0vus6_2Qnjn-66" value="&amp;nbsp;" style="text;strokeColor=none;fillColor=none;align=left;verticalAlign=top;spacingLeft=4;spacingRight=4;overflow=hidden;rotatable=0;points=[[0,0.5],[1,0.5]];portConstraint=eastwest;whiteSpace=wrap;html=1;" parent="Sg_wVtw9s0vus6_2Qnjn-65" vertex="1">
          <mxGeometry y="26" width="160" height="26" as="geometry" />
        </mxCell>
        <mxCell id="Sg_wVtw9s0vus6_2Qnjn-67" value="" style="line;strokeWidth=1;fillColor=none;align=left;verticalAlign=middle;spacingTop=-1;spacingLeft=3;spacingRight=3;rotatable=0;labelPosition=right;points=[];portConstraint=eastwest;strokeColor=inherit;" parent="Sg_wVtw9s0vus6_2Qnjn-65" vertex="1">
          <mxGeometry y="52" width="160" height="8" as="geometry" />
        </mxCell>
        <mxCell id="Sg_wVtw9s0vus6_2Qnjn-68" value="&amp;nbsp;" style="text;strokeColor=none;fillColor=none;align=left;verticalAlign=top;spacingLeft=4;spacingRight=4;overflow=hidden;rotatable=0;points=[[0,0.5],[1,0.5]];portConstraint=eastwest;whiteSpace=wrap;html=1;" parent="Sg_wVtw9s0vus6_2Qnjn-65" vertex="1">
          <mxGeometry y="60" width="160" height="50" as="geometry" />
        </mxCell>
        <mxCell id="Sg_wVtw9s0vus6_2Qnjn-69" value="SofaArtDeco" style="swimlane;fontStyle=1;align=center;verticalAlign=top;childLayout=stackLayout;horizontal=1;startSize=26;horizontalStack=0;resizeParent=1;resizeParentMax=0;resizeLast=0;collapsible=1;marginBottom=0;whiteSpace=wrap;html=1;" parent="1" vertex="1">
          <mxGeometry x="2070" y="499" width="160" height="110" as="geometry" />
        </mxCell>
        <mxCell id="Sg_wVtw9s0vus6_2Qnjn-70" value="&amp;nbsp;" style="text;strokeColor=none;fillColor=none;align=left;verticalAlign=top;spacingLeft=4;spacingRight=4;overflow=hidden;rotatable=0;points=[[0,0.5],[1,0.5]];portConstraint=eastwest;whiteSpace=wrap;html=1;" parent="Sg_wVtw9s0vus6_2Qnjn-69" vertex="1">
          <mxGeometry y="26" width="160" height="26" as="geometry" />
        </mxCell>
        <mxCell id="Sg_wVtw9s0vus6_2Qnjn-71" value="" style="line;strokeWidth=1;fillColor=none;align=left;verticalAlign=middle;spacingTop=-1;spacingLeft=3;spacingRight=3;rotatable=0;labelPosition=right;points=[];portConstraint=eastwest;strokeColor=inherit;" parent="Sg_wVtw9s0vus6_2Qnjn-69" vertex="1">
          <mxGeometry y="52" width="160" height="8" as="geometry" />
        </mxCell>
        <mxCell id="Sg_wVtw9s0vus6_2Qnjn-72" value="&amp;nbsp;" style="text;strokeColor=none;fillColor=none;align=left;verticalAlign=top;spacingLeft=4;spacingRight=4;overflow=hidden;rotatable=0;points=[[0,0.5],[1,0.5]];portConstraint=eastwest;whiteSpace=wrap;html=1;" parent="Sg_wVtw9s0vus6_2Qnjn-69" vertex="1">
          <mxGeometry y="60" width="160" height="50" as="geometry" />
        </mxCell>
        <mxCell id="Sg_wVtw9s0vus6_2Qnjn-73" value="" style="endArrow=block;endSize=16;endFill=0;html=1;rounded=0;exitX=0.5;exitY=0;exitDx=0;exitDy=0;" parent="1" source="Sg_wVtw9s0vus6_2Qnjn-37" target="Sg_wVtw9s0vus6_2Qnjn-28" edge="1">
          <mxGeometry width="160" relative="1" as="geometry">
            <mxPoint x="940" y="430" as="sourcePoint" />
            <mxPoint x="1100" y="430" as="targetPoint" />
          </mxGeometry>
        </mxCell>
        <mxCell id="Sg_wVtw9s0vus6_2Qnjn-74" value="" style="endArrow=block;endSize=16;endFill=0;html=1;rounded=0;exitX=0.5;exitY=0;exitDx=0;exitDy=0;" parent="1" source="Sg_wVtw9s0vus6_2Qnjn-41" target="Sg_wVtw9s0vus6_2Qnjn-28" edge="1">
          <mxGeometry width="160" relative="1" as="geometry">
            <mxPoint x="850" y="486" as="sourcePoint" />
            <mxPoint x="1004" y="410" as="targetPoint" />
          </mxGeometry>
        </mxCell>
        <mxCell id="Sg_wVtw9s0vus6_2Qnjn-76" value="" style="endArrow=block;endSize=16;endFill=0;html=1;rounded=0;exitX=0.5;exitY=0;exitDx=0;exitDy=0;" parent="1" target="Sg_wVtw9s0vus6_2Qnjn-36" edge="1">
          <mxGeometry width="160" relative="1" as="geometry">
            <mxPoint x="1230" y="499" as="sourcePoint" />
            <mxPoint x="1384" y="423" as="targetPoint" />
          </mxGeometry>
        </mxCell>
        <mxCell id="Sg_wVtw9s0vus6_2Qnjn-77" value="" style="endArrow=block;endSize=16;endFill=0;html=1;rounded=0;exitX=0.5;exitY=0;exitDx=0;exitDy=0;" parent="1" target="Sg_wVtw9s0vus6_2Qnjn-36" edge="1">
          <mxGeometry width="160" relative="1" as="geometry">
            <mxPoint x="1410" y="499" as="sourcePoint" />
            <mxPoint x="1410" y="423" as="targetPoint" />
          </mxGeometry>
        </mxCell>
        <mxCell id="Sg_wVtw9s0vus6_2Qnjn-78" value="" style="endArrow=block;endSize=16;endFill=0;html=1;rounded=0;exitX=0.5;exitY=0;exitDx=0;exitDy=0;" parent="1" target="Sg_wVtw9s0vus6_2Qnjn-36" edge="1">
          <mxGeometry width="160" relative="1" as="geometry">
            <mxPoint x="1590" y="499" as="sourcePoint" />
            <mxPoint x="1436" y="423" as="targetPoint" />
          </mxGeometry>
        </mxCell>
        <mxCell id="Sg_wVtw9s0vus6_2Qnjn-79" value="" style="endArrow=block;endSize=16;endFill=0;html=1;rounded=0;exitX=0.5;exitY=0;exitDx=0;exitDy=0;" parent="1" target="Sg_wVtw9s0vus6_2Qnjn-32" edge="1">
          <mxGeometry width="160" relative="1" as="geometry">
            <mxPoint x="1790" y="499" as="sourcePoint" />
            <mxPoint x="1940" y="420" as="targetPoint" />
          </mxGeometry>
        </mxCell>
        <mxCell id="Sg_wVtw9s0vus6_2Qnjn-80" value="" style="endArrow=block;endSize=16;endFill=0;html=1;rounded=0;exitX=0.5;exitY=0;exitDx=0;exitDy=0;" parent="1" target="Sg_wVtw9s0vus6_2Qnjn-32" edge="1">
          <mxGeometry width="160" relative="1" as="geometry">
            <mxPoint x="1970" y="499" as="sourcePoint" />
            <mxPoint x="1970" y="423" as="targetPoint" />
          </mxGeometry>
        </mxCell>
        <mxCell id="Sg_wVtw9s0vus6_2Qnjn-81" value="" style="endArrow=block;endSize=16;endFill=0;html=1;rounded=0;exitX=0.5;exitY=0;exitDx=0;exitDy=0;" parent="1" target="Sg_wVtw9s0vus6_2Qnjn-32" edge="1">
          <mxGeometry width="160" relative="1" as="geometry">
            <mxPoint x="2150" y="499" as="sourcePoint" />
            <mxPoint x="1996" y="423" as="targetPoint" />
          </mxGeometry>
        </mxCell>
        <mxCell id="Sg_wVtw9s0vus6_2Qnjn-82" value="" style="endArrow=block;endSize=16;endFill=0;html=1;rounded=0;exitX=0.5;exitY=0;exitDx=0;exitDy=0;" parent="1" source="Sg_wVtw9s0vus6_2Qnjn-45" target="Sg_wVtw9s0vus6_2Qnjn-28" edge="1">
          <mxGeometry width="160" relative="1" as="geometry">
            <mxPoint x="860" y="509" as="sourcePoint" />
            <mxPoint x="860" y="433" as="targetPoint" />
          </mxGeometry>
        </mxCell>
        <mxCell id="aBwXZsYKbME3f3BKlHMJ-1" value="MobiliarioArtDeco" style="swimlane;fontStyle=1;align=center;verticalAlign=top;childLayout=stackLayout;horizontal=1;startSize=26;horizontalStack=0;resizeParent=1;resizeParentMax=0;resizeLast=0;collapsible=1;marginBottom=0;whiteSpace=wrap;html=1;" vertex="1" parent="1">
          <mxGeometry x="270" y="330" width="180" height="120" as="geometry" />
        </mxCell>
        <mxCell id="aBwXZsYKbME3f3BKlHMJ-2" value="&amp;nbsp;" style="text;strokeColor=none;fillColor=none;align=left;verticalAlign=top;spacingLeft=4;spacingRight=4;overflow=hidden;rotatable=0;points=[[0,0.5],[1,0.5]];portConstraint=eastwest;whiteSpace=wrap;html=1;" vertex="1" parent="aBwXZsYKbME3f3BKlHMJ-1">
          <mxGeometry y="26" width="180" height="26" as="geometry" />
        </mxCell>
        <mxCell id="aBwXZsYKbME3f3BKlHMJ-3" value="" style="line;strokeWidth=1;fillColor=none;align=left;verticalAlign=middle;spacingTop=-1;spacingLeft=3;spacingRight=3;rotatable=0;labelPosition=right;points=[];portConstraint=eastwest;strokeColor=inherit;" vertex="1" parent="aBwXZsYKbME3f3BKlHMJ-1">
          <mxGeometry y="52" width="180" height="8" as="geometry" />
        </mxCell>
        <mxCell id="aBwXZsYKbME3f3BKlHMJ-4" value="+ crearSilla() : SillaArtDeco&lt;br&gt;+ crearMesa() : MesaArtDeco&lt;br&gt;+ crearSofa() : SofaArtDeco" style="text;strokeColor=none;fillColor=none;align=left;verticalAlign=top;spacingLeft=4;spacingRight=4;overflow=hidden;rotatable=0;points=[[0,0.5],[1,0.5]];portConstraint=eastwest;whiteSpace=wrap;html=1;" vertex="1" parent="aBwXZsYKbME3f3BKlHMJ-1">
          <mxGeometry y="60" width="180" height="60" as="geometry" />
        </mxCell>
        <mxCell id="aBwXZsYKbME3f3BKlHMJ-5" value="" style="endArrow=block;endSize=16;endFill=0;html=1;rounded=0;exitX=0.5;exitY=0;exitDx=0;exitDy=0;" edge="1" parent="1" source="aBwXZsYKbME3f3BKlHMJ-1" target="Sg_wVtw9s0vus6_2Qnjn-8">
          <mxGeometry width="160" relative="1" as="geometry">
            <mxPoint x="360" y="289" as="sourcePoint" />
            <mxPoint x="507" y="230" as="targetPoint" />
          </mxGeometry>
        </mxCell>
        <mxCell id="aBwXZsYKbME3f3BKlHMJ-6" value="" style="endArrow=block;endSize=16;endFill=0;html=1;rounded=0;exitX=0.5;exitY=0.012;exitDx=0;exitDy=0;exitPerimeter=0;" edge="1" parent="1" source="Sg_wVtw9s0vus6_2Qnjn-21" target="Sg_wVtw9s0vus6_2Qnjn-8">
          <mxGeometry width="160" relative="1" as="geometry">
            <mxPoint x="155" y="330" as="sourcePoint" />
            <mxPoint x="30" y="264" as="targetPoint" />
          </mxGeometry>
        </mxCell>
        <mxCell id="aBwXZsYKbME3f3BKlHMJ-7" value="" style="endArrow=block;endSize=16;endFill=0;html=1;rounded=0;exitX=0.5;exitY=0;exitDx=0;exitDy=0;" edge="1" parent="1" source="Sg_wVtw9s0vus6_2Qnjn-1" target="Sg_wVtw9s0vus6_2Qnjn-8">
          <mxGeometry width="160" relative="1" as="geometry">
            <mxPoint x="-20" y="316" as="sourcePoint" />
            <mxPoint x="-20" y="250" as="targetPoint" />
          </mxGeometry>
        </mxCell>
        <mxCell id="aBwXZsYKbME3f3BKlHMJ-27" value="" style="endArrow=diamondThin;endFill=0;endSize=24;html=1;rounded=0;entryX=1.008;entryY=0.746;entryDx=0;entryDy=0;exitX=0.5;exitY=0;exitDx=0;exitDy=0;entryPerimeter=0;" edge="1" parent="1" source="Sg_wVtw9s0vus6_2Qnjn-25" target="Sg_wVtw9s0vus6_2Qnjn-8">
          <mxGeometry width="160" relative="1" as="geometry">
            <mxPoint x="880" y="280" as="sourcePoint" />
            <mxPoint x="720" y="280" as="targetPoint" />
            <Array as="points">
              <mxPoint x="850" y="244" />
            </Array>
          </mxGeometry>
        </mxCell>
        <mxCell id="aBwXZsYKbME3f3BKlHMJ-35" value="1" style="edgeLabel;html=1;align=center;verticalAlign=middle;resizable=0;points=[];" vertex="1" connectable="0" parent="aBwXZsYKbME3f3BKlHMJ-27">
          <mxGeometry x="0.903" y="3" relative="1" as="geometry">
            <mxPoint x="-5" y="-7" as="offset" />
          </mxGeometry>
        </mxCell>
        <mxCell id="aBwXZsYKbME3f3BKlHMJ-36" value="*" style="edgeLabel;html=1;align=center;verticalAlign=middle;resizable=0;points=[];" vertex="1" connectable="0" parent="aBwXZsYKbME3f3BKlHMJ-27">
          <mxGeometry x="-0.9638" y="-3" relative="1" as="geometry">
            <mxPoint x="7" as="offset" />
          </mxGeometry>
        </mxCell>
        <mxCell id="aBwXZsYKbME3f3BKlHMJ-28" value="" style="endArrow=diamondThin;endFill=0;endSize=24;html=1;rounded=0;exitX=0.5;exitY=0;exitDx=0;exitDy=0;" edge="1" parent="1" source="Sg_wVtw9s0vus6_2Qnjn-33" target="Sg_wVtw9s0vus6_2Qnjn-8">
          <mxGeometry width="160" relative="1" as="geometry">
            <mxPoint x="860" y="347" as="sourcePoint" />
            <mxPoint x="251" y="254" as="targetPoint" />
            <Array as="points">
              <mxPoint x="1410" y="224" />
            </Array>
          </mxGeometry>
        </mxCell>
        <mxCell id="aBwXZsYKbME3f3BKlHMJ-34" value="1" style="edgeLabel;html=1;align=center;verticalAlign=middle;resizable=0;points=[];" vertex="1" connectable="0" parent="aBwXZsYKbME3f3BKlHMJ-28">
          <mxGeometry x="0.9438" relative="1" as="geometry">
            <mxPoint x="-5" y="-7" as="offset" />
          </mxGeometry>
        </mxCell>
        <mxCell id="aBwXZsYKbME3f3BKlHMJ-39" value="*" style="edgeLabel;html=1;align=center;verticalAlign=middle;resizable=0;points=[];" vertex="1" connectable="0" parent="aBwXZsYKbME3f3BKlHMJ-28">
          <mxGeometry x="-0.9754" y="-2" relative="1" as="geometry">
            <mxPoint x="8" as="offset" />
          </mxGeometry>
        </mxCell>
        <mxCell id="aBwXZsYKbME3f3BKlHMJ-29" value="" style="endArrow=diamondThin;endFill=0;endSize=24;html=1;rounded=0;entryX=1.004;entryY=0.306;entryDx=0;entryDy=0;exitX=0.5;exitY=0;exitDx=0;exitDy=0;entryPerimeter=0;" edge="1" parent="1" source="Sg_wVtw9s0vus6_2Qnjn-29" target="Sg_wVtw9s0vus6_2Qnjn-8">
          <mxGeometry width="160" relative="1" as="geometry">
            <mxPoint x="1420" y="347" as="sourcePoint" />
            <mxPoint x="250" y="234" as="targetPoint" />
            <Array as="points">
              <mxPoint x="1970" y="210" />
            </Array>
          </mxGeometry>
        </mxCell>
        <mxCell id="aBwXZsYKbME3f3BKlHMJ-32" value="1" style="edgeLabel;html=1;align=center;verticalAlign=middle;resizable=0;points=[];" vertex="1" connectable="0" parent="aBwXZsYKbME3f3BKlHMJ-29">
          <mxGeometry x="0.9531" y="3" relative="1" as="geometry">
            <mxPoint x="-14" y="-14" as="offset" />
          </mxGeometry>
        </mxCell>
        <mxCell id="aBwXZsYKbME3f3BKlHMJ-40" value="*" style="edgeLabel;html=1;align=center;verticalAlign=middle;resizable=0;points=[];" vertex="1" connectable="0" parent="aBwXZsYKbME3f3BKlHMJ-29">
          <mxGeometry x="-0.9883" y="-1" relative="1" as="geometry">
            <mxPoint x="9" as="offset" />
          </mxGeometry>
        </mxCell>
        <mxCell id="aBwXZsYKbME3f3BKlHMJ-31" value="" style="endArrow=diamondThin;endFill=0;endSize=24;html=1;rounded=0;entryX=1;entryY=0.5;entryDx=0;entryDy=0;exitX=0;exitY=0.5;exitDx=0;exitDy=0;" edge="1" parent="1" source="Sg_wVtw9s0vus6_2Qnjn-18" target="Sg_wVtw9s0vus6_2Qnjn-6">
          <mxGeometry width="160" relative="1" as="geometry">
            <mxPoint x="251" y="254" as="sourcePoint" />
            <mxPoint x="860" y="347" as="targetPoint" />
            <Array as="points" />
          </mxGeometry>
        </mxCell>
      </root>
    </mxGraphModel>
  </diagram>
</mxfile>
